<svg width="3134" height="351" viewBox="0 0 3134 351" fill="none" xmlns="http://www.w3.org/2000/svg">
<line x1="1392.76" y1="1.44141" x2="1392.76" y2="350.695" stroke="white" stroke-width="2"/>
<line x1="1566.76" y1="1.4082" x2="1566.76" y2="350.399" stroke="white" stroke-width="2"/>
<line x1="1740.76" y1="1.4082" x2="1740.76" y2="350.6" stroke="white" stroke-width="2"/>
<line y1="-1" x2="349.372" y2="-1" transform="matrix(-0.000319954 1 -1 -2.61409e-05 1913.76 1.4082)" stroke="white" stroke-width="2"/>
<line x1="1218.65" y1="1.44922" x2="1218.65" y2="350.526" stroke="white" stroke-width="2"/>
<line x1="1044.76" y1="1.46094" x2="1044.76" y2="350.632" stroke="white" stroke-width="2"/>
<line x1="522.764" y1="1.31836" x2="522.764" y2="350.469" stroke="white" stroke-width="2"/>
<line x1="1.01172" y1="0.00195308" x2="1.01173" y2="176.443" stroke="white" stroke-width="2"/>
<line x1="2784.76" y1="1.4082" x2="2784.76" y2="350.509" stroke="white" stroke-width="2"/>
<line x1="696.764" y1="1.82031" x2="696.764" y2="350.515" stroke="white" stroke-width="2"/>
<line x1="2088.76" y1="1.4082" x2="2088.76" y2="350.756" stroke="white" stroke-width="2"/>
<line x1="0.167969" y1="175.441" x2="3131.76" y2="175.441" stroke="white" stroke-width="2"/>
<line x1="174.764" y1="1.64844" x2="174.764" y2="350.788" stroke="white" stroke-width="2"/>
<line x1="2958.76" y1="1.4082" x2="2958.76" y2="350.509" stroke="white" stroke-width="2"/>
<line x1="870.764" y1="1.52539" x2="870.764" y2="350.649" stroke="white" stroke-width="2"/>
<line x1="2262.76" y1="1.4082" x2="2262.76" y2="350.509" stroke="white" stroke-width="2"/>
<line x1="3132.76" y1="1.4082" x2="3132.76" y2="350.885" stroke="white" stroke-width="2"/>
<line x1="2436.76" y1="1.4082" x2="2436.76" y2="350.509" stroke="white" stroke-width="2"/>
<line x1="348.764" y1="0.841797" x2="348.764" y2="350.64" stroke="white" stroke-width="2"/>
<line x1="2610.76" y1="1.4082" x2="2610.76" y2="350.509" stroke="white" stroke-width="2"/>
<line x1="0.167977" y1="1" x2="3133.76" y2="1.02541" stroke="white" stroke-width="2"/>
<line x1="0.0117188" y1="349.885" x2="3131.76" y2="349.885" stroke="white" stroke-width="2"/>
<line x1="348.174" y1="176.048" x2="175.507" y2="349.007" stroke="white" stroke-width="2"/>
<line x1="696.471" y1="1.63048" x2="523.329" y2="174.996" stroke="white" stroke-width="2"/>
<line x1="2088.32" y1="1.76915" x2="1915.17" y2="175.134" stroke="white" stroke-width="2"/>
<line x1="2261.46" y1="1.76915" x2="2088.32" y2="175.134" stroke="white" stroke-width="2"/>
<line x1="2262.96" y1="1.29289" x2="2436.22" y2="174.547" stroke="white" stroke-width="2"/>
<line x1="1740.88" y1="175.734" x2="1914.14" y2="348.988" stroke="white" stroke-width="2"/>
<line x1="2783.89" y1="1.76915" x2="2610.74" y2="175.134" stroke="white" stroke-width="2"/>
<line x1="3132.27" y1="176.31" x2="2959.12" y2="349.675" stroke="white" stroke-width="2"/>
<line x1="174.127" y1="176.143" x2="0.707073" y2="349.549" stroke="white" stroke-width="2"/>
<line x1="1044.92" y1="175.735" x2="1217.92" y2="349.272" stroke="white" stroke-width="2"/>
<line x1="1393.48" y1="1.7976" x2="1740.06" y2="349.155" stroke="white" stroke-width="2"/>
<line x1="523.421" y1="349.214" x2="696.321" y2="175.735" stroke="white" stroke-width="2"/>
</svg>
