<svg width="695" height="1398" viewBox="0 0 695 1398" fill="none" xmlns="http://www.w3.org/2000/svg">
<g clip-path="url(#clip0_411_815)">
<line x1="175.424" y1="1398.05" x2="175.424" y2="2.16699" stroke="#26323B" stroke-width="2"/>
<line x1="1.42383" y1="1396.04" x2="1.42365" y2="1.98523" stroke="#26323B" stroke-width="2"/>
<line x1="523.756" y1="1222.59" x2="1.66797" y2="1222.59" stroke="#26323B" stroke-width="2"/>
<path d="M175.299 175.953L1.50874 175.953" stroke="#26323B" stroke-width="2"/>
<path d="M349.395 873.719L1.10556 873.719" stroke="#26323B" stroke-width="2"/>
<path d="M175.664 524.835H1.37481" stroke="#26323B" stroke-width="2"/>
<path d="M349.425 1398.05L349.424 698.927" stroke="#26323B" stroke-width="2"/>
<line x1="350.424" y1="1397.04" x2="0.419922" y2="1397.04" stroke="#26323B" stroke-width="2"/>
<path d="M175.43 350.393H1.84473" stroke="#26323B" stroke-width="2"/>
<path d="M522.578 1048.16L2.03925 1048.16" stroke="#26323B" stroke-width="2"/>
<path d="M176.432 1.50781L0.409805 1.50781" stroke="#26323B" stroke-width="2"/>
<path d="M350.412 699.276L1.16 699.276" stroke="#26323B" stroke-width="2"/>
<line x1="175.995" y1="1222" x2="348.747" y2="1048.7" stroke="#26323B" stroke-width="2"/>
<line x1="175.716" y1="1047.55" x2="349.716" y2="873.253" stroke="#26323B" stroke-width="2"/>
<line x1="1.86548" y1="873.157" x2="174.891" y2="699.328" stroke="#26323B" stroke-width="2"/>
<line x1="349.715" y1="1397.34" x2="523.047" y2="1223.04" stroke="#26323B" stroke-width="2"/>
<line x1="1.71627" y1="349.764" x2="174.859" y2="176.399" stroke="#26323B" stroke-width="2"/>
<line x1="174.821" y1="1396.46" x2="0.959289" y2="1221.83" stroke="#26323B" stroke-width="2"/>
<line x1="521.867" y1="1047.86" x2="349.503" y2="873.666" stroke="#26323B" stroke-width="2"/>
<path d="M349.702 698.983L174.706 524.377" stroke="#26323B" stroke-width="2"/>
<line x1="174.767" y1="2.17858" x2="1.86651" y2="175.658" stroke="#26323B" stroke-width="2"/>
</g>
<defs>
<clipPath id="clip0_411_815">
<rect width="695" height="1398" fill="white" transform="translate(695 1398) rotate(180)"/>
</clipPath>
</defs>
</svg>
